# Blender v2.93.6 OBJ File: ''
# www.blender.org
mtllib adder.mtl
o Shape_IndexedLineSet
v 0.000011 -0.000012 -76.000000
v 0.000014 -0.000015 -90.000000
l 1 2
o Shape_IndexedLineSet.001
v 0.000011 -0.000012 -76.000000
v 0.000014 -0.000015 -90.000000
l 3 4
o obj1.001
v -18.000000 -0.000007 40.000000
v 18.000000 -0.000007 40.000000
v 18.000000 -7.000002 12.999999
v -18.000000 -7.000002 12.999999
v 18.000000 6.999998 13.000001
v -18.000000 6.999998 13.000001
v -30.000000 0.000004 -24.000000
v 30.000000 0.000004 -24.000000
v 30.000000 0.000007 -40.000000
v 18.000000 -6.999993 -40.000000
v 18.000000 7.000007 -40.000000
v -18.000000 -6.999993 -40.000000
v -30.000000 0.000007 -40.000000
v -18.000000 7.000007 -40.000000
vn 0.0000 -0.9680 0.2510
vn 0.0000 0.9680 0.2510
vn -0.8011 0.5794 0.1502
vn -0.8011 -0.5794 0.1502
vn 0.8011 -0.5794 0.1502
vn 0.8011 0.5794 0.1502
vn 0.5039 -0.8638 -0.0000
vn 0.5039 0.8638 0.0000
vn 0.0000 0.0000 -1.0000
vn 0.0000 -1.0000 -0.0000
vn -0.5039 -0.8638 -0.0000
vn -0.5039 0.8638 0.0000
vn 0.0000 1.0000 0.0000
usemtl Default_OBJ
s off
f 5//1 7//1 6//1
f 5//1 8//1 7//1
f 5//2 6//2 9//2
f 5//2 9//2 10//2
f 5//3 10//3 11//3
f 5//4 11//4 8//4
f 6//5 7//5 12//5
f 6//6 12//6 9//6
f 12//7 14//7 13//7
f 12//7 7//7 14//7
f 12//8 13//8 15//8
f 12//8 15//8 9//8
f 13//9 14//9 16//9
f 13//9 16//9 17//9
f 13//9 17//9 18//9
f 13//9 18//9 15//9
f 14//10 8//10 16//10
f 14//10 7//10 8//10
f 16//11 11//11 17//11
f 16//11 8//11 11//11
f 16//9 17//9 18//9
f 17//12 11//12 10//12
f 17//12 10//12 18//12
f 18//13 10//13 9//13
f 18//13 9//13 15//13
