# Blender v2.93.6 OBJ File: ''
# www.blender.org
mtllib asp2.mtl
o Shape_IndexedLineSet
v 0.000011 -0.000012 -76.000000
v 0.000014 -0.000015 -90.000000
l 1 2
o Shape_IndexedLineSet.001
v 0.000011 -0.000012 -76.000000
v 0.000014 -0.000015 -90.000000
l 3 4
o obj1.003
v 0.000000 -18.000000 -0.000003
v 0.000000 -8.999992 -45.000000
v -43.000000 0.000007 -45.000000
v -69.000000 -3.000000 -0.000000
v -43.000000 -14.000005 27.999998
v 43.000000 0.000007 -45.000000
v 69.000000 -3.000000 -0.000000
v 43.000000 -14.000005 27.999998
v 26.000000 -7.000012 73.000000
v -26.000000 -7.000012 73.000000
v 0.000000 9.000008 -45.000000
v 43.000000 13.999995 28.000002
v -43.000000 13.999995 28.000002
vn -0.2010 -0.9606 -0.1921
vn -0.2088 -0.9604 -0.1847
vn -0.2088 -0.9606 -0.1835
vn 0.2010 -0.9606 -0.1921
vn 0.2088 -0.9604 -0.1847
vn 0.2088 -0.9606 -0.1835
vn -0.0066 -0.9885 0.1513
vn 0.0000 -0.9888 0.1490
vn 0.0066 -0.9885 0.1513
vn 0.0000 0.0000 -1.0000
vn 0.4022 0.8992 -0.1724
vn 0.2013 0.9620 -0.1845
vn 0.6603 -0.6631 0.3526
vn 0.7799 0.4001 0.4813
vn -0.4022 0.8992 -0.1724
vn -0.2013 0.9620 -0.1845
vn -0.6603 -0.6631 0.3526
vn -0.7799 0.4001 0.4813
vn 0.0000 0.9062 0.4229
vn 0.0000 0.9977 -0.0683
usemtl Default_OBJ.002
s off
f 5//1 7//1 6//1
f 5//2 8//2 7//2
f 5//3 9//3 8//3
f 5//4 6//4 10//4
f 5//5 10//5 11//5
f 5//6 11//6 12//6
f 5//7 12//7 13//7
f 5//8 13//8 14//8
f 5//9 14//9 9//9
f 6//10 15//10 10//10
f 6//10 7//10 15//10
f 10//11 16//11 11//11
f 10//12 15//12 16//12
f 11//13 13//13 12//13
f 11//14 16//14 13//14
f 7//15 8//15 17//15
f 7//16 17//16 15//16
f 8//17 9//17 14//17
f 8//18 14//18 17//18
f 13//19 17//19 14//19
f 13//19 16//19 17//19
f 16//20 15//20 17//20
