# Blender v2.93.6 OBJ File: ''
# www.blender.org
mtllib cargo.mtl
o Shape_IndexedLineSet
v 0.000011 -0.000012 -76.000000
v 0.000014 -0.000015 -90.000000
l 1 2
o Shape_IndexedLineSet.001
v 0.000011 -0.000012 -76.000000
v 0.000014 -0.000015 -90.000000
l 3 4
o obj1.007
v 24.000000 16.000000 0.000003
v 24.000000 4.999998 15.000001
v 24.000000 -13.000002 8.999998
v 24.000000 -12.999998 -9.000002
v 24.000000 5.000002 -14.999999
v -24.000000 4.999998 15.000001
v -24.000000 16.000000 0.000003
v -24.000000 5.000002 -14.999999
v -24.000000 -13.000002 8.999998
v -24.000000 -12.999998 -9.000002
vn 1.0000 0.0000 0.0000
vn 0.0000 0.8064 0.5914
vn 0.0000 0.8064 -0.5914
vn 0.0000 -0.3162 0.9487
vn 0.0000 -1.0000 -0.0000
vn 0.0000 -0.3162 -0.9487
vn -1.0000 0.0000 0.0000
usemtl Default_OBJ.006
s off
f 5//1 6//1 7//1
f 5//1 7//1 8//1
f 5//1 8//1 9//1
f 5//2 10//2 6//2
f 5//2 11//2 10//2
f 5//3 9//3 12//3
f 5//3 12//3 11//3
f 6//4 13//4 7//4
f 6//4 10//4 13//4
f 7//5 14//5 8//5
f 7//5 13//5 14//5
f 8//6 12//6 9//6
f 8//6 14//6 12//6
f 11//7 13//7 10//7
f 11//7 14//7 13//7
f 11//7 12//7 14//7
