# Blender v2.93.6 OBJ File: ''
# www.blender.org
mtllib cobra3.mtl
o Shape_IndexedLineSet
v 0.000011 0.000000 -76.000000
v 0.000014 -0.000000 -90.000000
l 1 2
o Shape_IndexedLineSet.001
v 0.000011 0.000000 -76.000000
v 0.000014 -0.000000 -90.000000
l 3 4
o Shape_IndexedLineSet.002
v 0.000011 0.000000 -76.000000
v 0.000014 -0.000000 -90.000000
l 5 6
o Shape_IndexedLineSet.003
v 0.000011 0.000000 -76.000000
v 0.000014 -0.000000 -90.000000
l 7 8
o Shape_IndexedLineSet.004
v 0.000011 0.000000 -76.000000
v 0.000014 -0.000000 -90.000000
l 9 10
o Shape_IndexedLineSet.005
v 0.000011 0.000000 -76.000000
v 0.000014 -0.000000 -90.000000
l 11 12
o Shape_IndexedFaceSet
v 32.000000 -0.000012 76.000000
v -32.000000 -0.000012 76.000000
v 0.000000 25.999996 24.000004
v -120.000000 -2.999999 -8.000001
v 120.000000 -2.999999 -8.000001
v -88.000000 16.000006 -39.999996
v 88.000000 16.000006 -39.999996
v 128.000000 -7.999993 -40.000000
v -128.000000 -7.999993 -40.000000
v 0.000000 26.000006 -39.999996
v -32.000000 -23.999994 -40.000004
v 32.000000 -23.999994 -40.000004
v -36.000000 8.000007 -40.000000
v -8.000000 12.000007 -39.999996
v 8.000000 12.000007 -39.999996
v 36.000000 8.000007 -40.000000
v 36.000000 -11.999993 -40.000004
v 8.000000 -15.999993 -40.000004
v -8.000000 -15.999993 -40.000004
v -36.000000 -11.999993 -40.000004
v 0.000000 -0.000012 76.000000
v 0.000000 -0.000015 90.000000
v -80.000000 -5.999993 -40.000000
v -80.000000 6.000007 -40.000000
v -88.000000 0.000007 -40.000000
v 80.000000 6.000007 -40.000000
v 88.000000 0.000007 -40.000000
v 80.000000 -5.999993 -40.000000
vt 0.625000 1.000000
vt 0.500000 0.551724
vt 0.375000 1.000000
vt 0.375000 0.000000
vt 0.625000 0.000000
vt 0.843750 0.000000
vt 0.968750 0.275862
vt 1.000000 0.000000
vt 0.156250 0.000000
vt 0.031250 0.275862
vt 0.000000 0.000000
vt 0.500000 0.000000
vn 0.0000 0.8944 0.4472
vn 0.0000 -0.9793 0.2026
vn 0.3014 0.9140 0.2716
vn 0.2834 0.9219 0.2640
vn 0.1588 -0.9672 0.1981
vn -0.3014 0.9140 0.2716
vn -0.2834 0.9219 0.2640
vn -0.1588 -0.9672 0.1981
vn -0.1129 0.9936 0.0000
vn 0.1129 0.9936 0.0000
vn -0.5145 0.8575 -0.0054
vn 0.5145 0.8575 -0.0054
vn 0.0000 0.0000 -1.0000
usemtl orange
s off
f 13/1/1 15/2/1 14/3/1
f 13/1/2 14/3/2 23/4/2 24/5/2
f 13/1/3 19/6/3 15/2/3
f 13/1/4 17/7/4 19/6/4
f 13/1/5 24/5/5 20/8/5 17/7/5
f 14/3/6 15/2/6 18/9/6
f 14/3/7 18/9/7 16/10/7
f 14/3/8 16/10/8 21/11/8 23/4/8
f 15/2/9 22/12/9 18/9/9
f 15/2/10 19/6/10 22/12/10
f 16/10/11 18/9/11 21/11/11
f 17/7/12 20/8/12 19/6/12
f 18/9/13 22/12/13 19/6/13 20/8/13 24/5/13 23/4/13 21/11/13
o Shape_IndexedLineSet.006_Shape_IndexedLineSet
v 0.000011 -0.000012 -76.000000
v 0.000014 -0.000015 -90.000000
l 41 42
