# Blender v2.93.6 OBJ File: ''
# www.blender.org
mtllib cobra1.mtl
o Shape_IndexedLineSet
v 0.000011 -0.000012 -76.000000
v 0.000014 -0.000015 -90.000000
l 1 2
o Shape_IndexedLineSet.001
v 0.000011 -0.000012 -76.000000
v 0.000014 -0.000015 -90.000000
l 3 4
o obj1.008
v -18.000000 -1.000008 50.000000
v -66.000000 -0.000001 7.000000
v -54.000000 -11.999994 -38.000004
v -32.000000 12.000006 -37.999996
v 0.000000 12.000001 -5.999998
v 54.000000 -11.999994 -38.000004
v 18.000000 -1.000008 50.000000
v 66.000000 -0.000001 7.000000
v 32.000000 12.000006 -37.999996
vn -0.2010 -0.9585 0.2020
vn -0.1272 0.9781 0.1647
vn -0.1705 0.9705 0.1705
vn 0.0000 -0.9923 0.1240
vn 0.0000 0.9741 0.2261
vn 0.2010 -0.9585 0.2020
vn -0.6898 0.6323 -0.3526
vn 0.1414 0.9734 0.1805
vn 0.1485 0.9777 0.1485
vn 0.0000 0.0000 -1.0000
vn 0.0000 1.0000 0.0000
vn 0.6898 0.6323 -0.3526
usemtl Default_OBJ.007
s off
f 5//1 6//1 7//1
f 5//2 8//2 6//2
f 5//3 9//3 8//3
f 5//4 7//4 10//4
f 5//4 10//4 11//4
f 5//5 11//5 9//5
f 11//6 10//6 12//6
f 6//7 8//7 7//7
f 12//8 9//8 11//8
f 12//9 13//9 9//9
f 8//10 13//10 10//10
f 8//10 10//10 7//10
f 8//11 9//11 13//11
f 13//12 12//12 10//12
