# Blender v2.93.6 OBJ File: ''
# www.blender.org
mtllib constric.mtl
o Shape_IndexedLineSet
v 0.000011 -0.000012 -76.000000
v 0.000014 -0.000015 -90.000000
l 1 2
o Shape_IndexedLineSet.001
v 0.000011 -0.000012 -76.000000
v 0.000014 -0.000015 -90.000000
l 3 4
o obj1.009
v 20.000000 -7.000013 80.000000
v -20.000000 -7.000013 80.000000
v -54.000000 -7.000007 40.000000
v -54.000000 -6.999993 -40.000000
v 54.000000 -6.999993 -40.000000
v 54.000000 -7.000007 40.000000
v -20.000000 12.999999 5.000002
v 20.000000 12.999999 5.000002
v -20.000000 13.000007 -39.999996
v 20.000000 13.000007 -39.999996
vn 0.0000 -1.0000 -0.0000
vn 0.0000 0.9662 0.2577
vn 0.2901 0.9247 0.2466
vn -0.2901 0.9247 0.2466
vn -0.5070 0.8619 0.0000
vn 0.0000 0.0000 -1.0000
vn 0.0000 1.0000 0.0000
vn 0.5070 0.8619 0.0000
usemtl Default_OBJ.008
s off
f 5//1 6//1 7//1
f 5//1 7//1 8//1
f 5//1 8//1 9//1
f 5//1 9//1 10//1
f 5//2 11//2 6//2
f 5//2 12//2 11//2
f 5//3 10//3 12//3
f 6//4 11//4 7//4
f 7//5 11//5 8//5
f 8//6 13//6 14//6
f 8//6 14//6 9//6
f 8//5 11//5 13//5
f 13//7 12//7 14//7
f 13//7 11//7 12//7
f 14//8 12//8 9//8
f 9//8 12//8 10//8
