# Blender v2.93.6 OBJ File: ''
# www.blender.org
mtllib coriolis2.mtl
o Shape_IndexedFaceSet
v -159.999969 -0.000026 -160.000031
v 0.000024 159.999969 -160.000031
v 160.000031 -0.000026 -159.999969
v 0.000024 -160.000031 -159.999969
v -160.000000 -160.000000 0.000002
v -160.000000 160.000000 -0.000050
v 160.000000 160.000000 -0.000002
v 160.000000 -160.000000 0.000050
v -160.000031 0.000026 159.999969
v -0.000024 160.000031 159.999969
v 159.999969 0.000026 160.000031
v -0.000024 -159.999969 160.000031
v -9.999976 -30.000027 -160.000000
v -9.999976 29.999973 -160.000000
v 10.000024 29.999973 -160.000000
v 10.000024 -30.000027 -160.000000
vt 1.000000 0.500000
vt 0.500000 1.000000
vt 0.000000 0.500000
vt 0.500000 0.000000
vt 1.000000 1.000000
vt 1.000000 0.000000
vt 1.000000 0.500000
vt 0.000000 1.000000
vt 0.500000 1.000000
vt 0.000000 0.000000
vt 0.000000 0.500000
vt 0.500000 0.000000
vn 0.0000 -0.0000 -1.0000
vn 0.5774 -0.5774 0.5774
vn -0.5774 -0.5774 -0.5774
vn -1.0000 -0.0000 -0.0000
vn -0.5774 -0.5774 0.5774
vn -0.0000 -1.0000 0.0000
vn -0.5774 0.5774 0.5774
vn 1.0000 0.0000 0.0000
vn 0.0000 1.0000 -0.0000
vn 0.5774 0.5774 -0.5774
vn 0.5774 0.5774 0.5774
usemtl None
s off
f 1/1/1 2/2/1 3/3/1 4/4/1
f 1/1/2 2/2/2 6/5/2
f 1/1/3 4/4/3 5/6/3
f 1/1/4 5/6/4 9/7/4 6/5/4
f 2/2/5 3/3/5 7/8/5
f 2/2/6 7/8/6 10/9/6 6/5/6
f 3/3/7 4/4/7 8/10/7
f 3/3/8 7/8/8 11/11/8 8/10/8
f 4/4/9 5/6/9 12/12/9 8/10/9
f 5/6/10 9/7/10 12/12/10
f 6/5/7 9/7/7 10/9/7
f 7/8/11 10/9/11 11/11/11
f 8/10/2 11/11/2 12/12/2
f 9/7/1 10/9/1 11/11/1 12/12/1
