# Blender v2.93.6 OBJ File: ''
# www.blender.org
mtllib dodo.mtl
o Shape_IndexedLineSet
v 0.000011 -0.000012 -76.000000
v 0.000014 -0.000015 -90.000000
l 1 2
o Shape_IndexedLineSet.001
v 0.000011 -0.000012 -76.000000
v 0.000014 -0.000015 -90.000000
l 3 4
o obj1.010
v 0.000000 149.999969 196.000031
v 143.000000 45.999969 196.000000
v 231.000000 74.999992 46.000011
v 143.000000 196.000000 -45.999969
v 0.000000 243.000000 46.000038
v 88.000000 -121.000031 195.999985
v -88.000000 -121.000031 195.999985
v -143.000000 45.999969 196.000000
v -143.000000 196.000000 -45.999969
v -231.000000 74.999992 46.000011
v 143.000000 -196.000000 45.999969
v 231.000000 -74.999992 -46.000011
v -143.000000 -196.000000 45.999969
v 0.000000 -243.000000 -46.000038
v -231.000000 -74.999992 -46.000011
v 88.000000 121.000031 -195.999985
v -88.000000 121.000031 -195.999985
v 143.000000 -45.999969 -196.000000
v 0.000000 -149.999969 -196.000031
v -143.000000 -45.999969 -196.000000
vn 0.5258 0.7229 0.4482
vn 0.5257 0.7231 0.4481
vn 0.5259 0.7229 0.4482
vn -0.0000 -0.0000 1.0000
vn -0.5259 0.7229 0.4482
vn -0.5257 0.7231 0.4481
vn -0.5258 0.7229 0.4482
vn 0.8479 -0.2793 0.4505
vn 0.8499 -0.2776 0.4479
vn 0.8517 -0.2740 0.4467
vn 0.0000 -0.8944 0.4472
vn -0.0031 -0.8925 0.4511
vn 0.0051 -0.8937 0.4487
vn -0.8506 -0.2802 0.4449
vn -0.8496 -0.2758 0.4496
vn -0.8495 -0.2761 0.4495
vn 0.0051 0.8937 -0.4487
vn 0.0000 0.8929 -0.4502
vn -0.0051 0.8937 -0.4487
vn 0.8517 0.2740 -0.4467
vn 0.8489 0.2796 -0.4485
vn 0.8495 0.2761 -0.4495
vn 0.5259 -0.7229 -0.4482
vn 0.5258 -0.7230 -0.4481
vn 0.5257 -0.7231 -0.4482
vn -0.5257 -0.7231 -0.4482
vn -0.5258 -0.7230 -0.4481
vn -0.5259 -0.7229 -0.4482
vn -0.8495 0.2761 -0.4495
vn -0.8489 0.2796 -0.4485
vn -0.8517 0.2740 -0.4467
vn -0.0000 0.0000 -1.0000
usemtl Default_OBJ.009
s off
f 5//1 6//1 7//1
f 5//2 7//2 8//2
f 5//3 8//3 9//3
f 5//4 10//4 6//4
f 5//4 11//4 10//4
f 5//4 12//4 11//4
f 5//5 9//5 13//5
f 5//6 13//6 14//6
f 5//7 14//7 12//7
f 6//8 10//8 15//8
f 6//9 15//9 16//9
f 6//10 16//10 7//10
f 10//11 11//11 17//11
f 10//12 17//12 18//12
f 10//13 18//13 15//13
f 11//14 12//14 14//14
f 11//15 14//15 19//15
f 11//16 19//16 17//16
f 9//17 8//17 20//17
f 9//18 20//18 21//18
f 9//19 21//19 13//19
f 7//20 16//20 22//20
f 7//21 22//21 20//21
f 7//22 20//22 8//22
f 15//23 18//23 23//23
f 15//24 23//24 22//24
f 15//25 22//25 16//25
f 17//26 19//26 24//26
f 17//27 24//27 23//27
f 17//28 23//28 18//28
f 14//29 13//29 21//29
f 14//30 21//30 24//30
f 14//31 24//31 19//31
f 20//32 22//32 23//32
f 20//32 23//32 24//32
f 20//32 24//32 21//32
