# Blender v2.93.6 OBJ File: ''
# www.blender.org
mtllib escape.mtl
o Shape_IndexedLineSet
v 0.000011 -0.000012 -76.000000
v 0.000014 -0.000015 -90.000000
l 1 2
o Shape_IndexedLineSet.001
v 0.000011 -0.000012 -76.000000
v 0.000014 -0.000015 -90.000000
l 3 4
o obj1.011
v -7.000000 -0.000006 36.000000
v -7.000000 -13.999998 -12.000002
v -7.000000 14.000002 -11.999998
v 21.000000 0.000000 0.000000
vn -1.0000 -0.0000 0.0000
vn 0.3387 -0.9033 0.2634
vn 0.3387 0.9033 0.2634
vn 0.3939 0.0000 -0.9191
usemtl Default_OBJ.010
s off
f 5//1 7//1 6//1
f 5//2 6//2 8//2
f 5//3 8//3 7//3
f 6//4 7//4 8//4
