# Blender v2.93.6 OBJ File: ''
# www.blender.org
mtllib ferdelan.mtl
o Shape_IndexedLineSet
v 0.000011 -0.000012 -76.000000
v 0.000014 -0.000015 -90.000000
l 1 2
o Shape_IndexedLineSet.001
v 0.000011 -0.000012 -76.000000
v 0.000014 -0.000015 -90.000000
l 3 4
o obj1.012
v 0.000000 -14.000017 108.000000
v -40.000000 -13.999999 -4.000002
v -12.000000 -13.999991 -52.000004
v 12.000000 -13.999991 -52.000004
v 40.000000 -13.999999 -4.000002
v -40.000000 14.000001 -3.999998
v 40.000000 14.000001 -3.999998
v 0.000000 18.000004 -19.999996
v -12.000000 2.000009 -52.000000
v 12.000000 2.000009 -52.000000
vn -0.0000 -1.0000 -0.0000
vn -0.9417 -0.0000 0.3363
vn 0.9417 -0.0000 0.3363
vn -0.0000 0.9701 0.2425
vn -0.8638 0.0000 -0.5039
vn 0.0000 0.0000 -1.0000
vn 0.8638 -0.0000 -0.5039
vn -0.2352 0.9017 -0.3627
vn 0.0000 0.8944 -0.4472
vn 0.2352 0.9017 -0.3627
usemtl Default_OBJ.011
s off
f 5//1 6//1 7//1
f 5//1 7//1 8//1
f 5//1 8//1 9//1
f 5//2 10//2 6//2
f 5//3 9//3 11//3
f 5//4 12//4 10//4
f 5//4 11//4 12//4
f 6//5 13//5 7//5
f 6//5 10//5 13//5
f 7//6 14//6 8//6
f 7//6 13//6 14//6
f 8//7 11//7 9//7
f 8//7 14//7 11//7
f 10//8 12//8 13//8
f 13//9 12//9 14//9
f 14//10 12//10 11//10
