# Blender v2.93.6 OBJ File: ''
# www.blender.org
mtllib mamba.mtl
o Shape_IndexedLineSet
v 0.000011 -0.000012 -76.000000
v 0.000014 -0.000015 -90.000000
l 1 2
o Shape_IndexedLineSet.001
v 0.000011 -0.000012 -76.000000
v 0.000014 -0.000015 -90.000000
l 3 4
o obj1.015
v 0.000000 -0.000010 64.000000
v -64.000000 -7.999995 -32.000000
v 64.000000 -7.999995 -32.000000
v -32.000000 8.000005 -31.999998
v 32.000000 8.000005 -31.999998
vn 0.0000 -0.9965 0.0830
vn -0.4364 0.8729 0.2182
vn 0.0000 0.9965 0.0830
vn 0.4364 0.8729 0.2182
vn 0.0000 0.0000 -1.0000
usemtl Default_OBJ.014
s off
f 5//1 6//1 7//1
f 5//2 8//2 6//2
f 5//3 9//3 8//3
f 5//4 7//4 9//4
f 6//5 8//5 9//5
f 6//5 9//5 7//5
