# Blender v2.93.6 OBJ File: ''
# www.blender.org
mtllib missile.mtl
o obj1
v 0.000000 -2.000004 27.000000
v -4.000000 -2.000002 15.000000
v 4.000000 -2.000002 15.000000
v 0.000000 4.999998 15.000001
v 0.000000 5.000002 -14.999999
v -4.000000 -1.999997 -15.000000
v 4.000000 -1.999997 -15.000000
v -9.000000 -4.999998 -15.000001
v -4.000000 -2.000000 -3.000000
v 0.000000 11.000003 -14.999998
v 0.000000 5.000000 -2.999999
v 9.000000 -4.999998 -15.000001
v 4.000000 -2.000000 -3.000000
vn 0.0000 -1.0000 -0.0000
vn -0.8340 0.4766 0.2780
vn 0.8340 0.4766 0.2780
vn -0.8682 0.4961 0.0000
vn 0.8682 0.4961 0.0000
vn 0.0000 0.0000 -1.0000
vn 0.5145 -0.8575 -0.0000
vn 1.0000 0.0000 0.0000
vn -0.5145 -0.8575 -0.0000
usemtl Default_OBJ
s off
f 1//1 2//1 3//1
f 1//2 4//2 2//2
f 1//3 3//3 4//3
f 2//4 4//4 5//4
f 2//4 5//4 6//4
f 2//1 7//1 3//1
f 2//1 6//1 7//1
f 4//5 3//5 7//5
f 4//5 7//5 5//5
f 6//6 5//6 7//6
f 6//7 9//7 8//7
f 5//8 10//8 11//8
f 7//9 12//9 13//9
