# Blender v2.93.6 OBJ File: ''
# www.blender.org
mtllib python.mtl
o obj1.002
v 0.000000 -0.000036 224.000000
v 0.000000 47.999992 48.000008
v -96.000000 0.000003 -16.000000
v 96.000000 0.000003 -16.000000
v 0.000000 -48.000008 47.999992
v 0.000000 48.000004 -31.999992
v 0.000000 24.000019 -111.999992
v 48.000000 0.000018 -112.000000
v 0.000000 -23.999981 -112.000008
v 0.000000 -47.999996 -32.000008
v -48.000000 0.000018 -112.000000
vn -0.5496 0.8060 0.2198
vn 0.5496 0.8060 0.2198
vn 0.5496 -0.8060 0.2198
vn -0.5496 -0.8060 0.2198
vn 0.4472 0.8944 0.0000
vn -0.4472 0.8944 0.0000
vn 0.4661 0.8474 -0.2542
vn 0.4364 0.8729 -0.2182
vn 0.4364 -0.8729 -0.2182
vn 0.4472 -0.8944 -0.0000
vn 0.4661 -0.8474 -0.2542
vn -0.4661 0.8474 -0.2542
vn -0.4364 0.8729 -0.2182
vn -0.4364 -0.8729 -0.2182
vn -0.4472 -0.8944 -0.0000
vn -0.4661 -0.8474 -0.2542
vn 0.0000 0.0000 -1.0000
usemtl Default_OBJ.002
s off
f 1//1 2//1 3//1
f 1//2 4//2 2//2
f 1//3 5//3 4//3
f 1//4 3//4 5//4
f 2//5 4//5 6//5
f 2//6 6//6 3//6
f 4//7 7//7 6//7
f 4//8 8//8 7//8
f 4//9 9//9 8//9
f 4//10 5//10 10//10
f 4//11 10//11 9//11
f 3//12 6//12 7//12
f 3//13 7//13 11//13
f 3//14 11//14 9//14
f 3//15 10//15 5//15
f 3//16 9//16 10//16
f 7//17 9//17 11//17
f 7//17 8//17 9//17
