# Blender v2.93.6 OBJ File: ''
# www.blender.org
mtllib shuttle.mtl
o obj1.003
v 0.000000 -17.000004 22.999998
v -17.000000 -0.000004 23.000000
v -20.000000 -19.999996 -27.000004
v 0.000000 -9.000006 35.000000
v 18.000000 -0.000004 23.000000
v 20.000000 -19.999996 -27.000004
v 0.000000 17.999996 23.000004
v -20.000000 20.000004 -26.999996
v 20.000000 20.000004 -26.999996
vn -0.6724 -0.6724 0.3093
vn -0.6396 -0.6396 0.4264
vn 0.6179 -0.6542 0.4361
vn 0.6543 -0.6928 0.3033
vn 0.0000 -0.9982 0.0599
vn -0.3951 0.3731 0.8395
vn -0.6928 0.6543 0.3033
vn -0.9982 -0.0000 0.0599
vn 0.3763 0.3763 0.8466
vn 0.6752 0.6752 0.2971
vn 0.0000 0.9992 0.0400
vn 0.9992 -0.0000 0.0400
vn 0.0000 0.0000 -1.0000
usemtl Default_OBJ.003
s off
f 1//1 2//1 3//1
f 1//2 4//2 2//2
f 1//3 5//3 4//3
f 1//4 6//4 5//4
f 1//5 3//5 6//5
f 2//6 4//6 7//6
f 2//7 7//7 8//7
f 2//8 8//8 3//8
f 7//9 4//9 5//9
f 7//10 5//10 9//10
f 7//11 9//11 8//11
f 5//12 6//12 9//12
f 3//13 8//13 9//13
f 3//13 9//13 6//13
