# Blender v2.93.6 OBJ File: ''
# www.blender.org
mtllib sidewind.mtl
o obj1.004
v -32.000000 -0.000006 36.000000
v 32.000000 -0.000006 36.000000
v 0.000000 16.000004 -27.999998
v 0.000000 -15.999995 -28.000002
v -64.000000 0.000005 -28.000000
v 64.000000 0.000005 -28.000000
vn 0.0000 0.9701 0.2425
vn 0.0000 -0.9701 0.2425
vn -0.2408 0.9631 0.1204
vn -0.2408 -0.9631 0.1204
vn 0.2408 0.9631 0.1204
vn 0.2408 -0.9631 0.1204
vn 0.0000 0.0000 -1.0000
usemtl Default_OBJ.004
s off
f 1//1 2//1 3//1
f 1//2 4//2 2//2
f 1//3 3//3 5//3
f 1//4 5//4 4//4
f 2//5 6//5 3//5
f 2//6 4//6 6//6
f 6//7 5//7 3//7
f 6//7 4//7 5//7
