# Blender v2.93.6 OBJ File: ''
# www.blender.org
mtllib trans.mtl
o obj1.006
v 0.000000 10.000004 -25.999998
v -25.000000 4.000004 -26.000000
v -30.000000 -1.000002 12.000000
v 0.000000 5.999998 12.000001
v -28.000000 -2.999996 -26.000000
v -25.000000 -7.999996 -26.000002
v 26.000000 -7.999996 -26.000002
v 29.000000 -2.999996 -26.000000
v 26.000000 4.000004 -26.000000
v 30.000000 -1.000002 12.000000
v -33.000000 -8.000002 11.999999
v 33.000000 -8.000002 11.999999
v 14.000000 -8.000005 29.999998
v -13.000000 -8.000005 29.999998
v -11.000000 -2.000005 30.000000
v 11.000000 -2.000005 30.000000
vn -0.2323 0.9678 0.0968
vn -0.2260 0.9688 0.1020
vn -0.0000 -0.0000 -1.0000
vn 0.2236 0.9691 0.1040
vn 0.2260 0.9688 0.1020
vn -0.9170 0.3930 -0.0689
vn -0.8439 -0.5063 -0.1777
vn 0.0000 -1.0000 -0.0000
vn 0.8470 -0.5082 -0.1560
vn 0.9182 0.3935 -0.0449
vn -0.2180 0.9343 0.2820
vn 0.2180 0.9343 0.2820
vn 0.0000 0.9138 0.4061
vn -0.6431 0.2756 0.7145
vn -0.6645 0.2215 0.7137
vn 0.6525 0.2796 0.7043
vn 0.6504 0.3252 0.6865
vn 0.0000 -0.0000 1.0000
usemtl Default_OBJ.006
s off
f 1//1 2//1 3//1
f 1//2 3//2 4//2
f 1//3 5//3 2//3
f 1//3 6//3 5//3
f 1//3 7//3 6//3
f 1//3 8//3 7//3
f 1//3 9//3 8//3
f 1//4 10//4 9//4
f 1//5 4//5 10//5
f 2//6 5//6 11//6
f 2//6 11//6 3//6
f 5//7 6//7 11//7
f 6//8 7//8 12//8
f 6//8 12//8 13//8
f 6//8 13//8 14//8
f 6//8 14//8 11//8
f 7//9 8//9 12//9
f 8//10 9//10 10//10
f 8//10 10//10 12//10
f 4//11 3//11 15//11
f 4//12 16//12 10//12
f 4//13 15//13 16//13
f 3//14 11//14 14//14
f 3//15 14//15 15//15
f 12//16 10//16 16//16
f 12//17 16//17 13//17
f 15//18 14//18 13//18
f 15//18 13//18 16//18
