# Blender v2.93.6 OBJ File: ''
# www.blender.org
mtllib viper.mtl
o obj1.007
v 0.000000 -0.000012 72.000000
v 0.000000 15.999996 24.000002
v -24.000000 16.000004 -23.999998
v -48.000000 0.000004 -24.000000
v 24.000000 16.000004 -23.999998
v 48.000000 0.000004 -24.000000
v 0.000000 -16.000004 23.999998
v -24.000000 -15.999996 -24.000002
v 24.000000 -15.999996 -24.000002
vn -0.5345 0.8018 0.2673
vn 0.5345 0.8018 0.2673
vn -0.5345 -0.8018 0.2673
vn 0.5345 -0.8018 0.2673
vn 0.0000 1.0000 0.0000
vn 0.0000 -1.0000 -0.0000
vn 0.0000 0.0000 -1.0000
usemtl Default_OBJ.007
s off
f 1//1 2//1 3//1
f 1//1 3//1 4//1
f 1//2 5//2 2//2
f 1//2 6//2 5//2
f 1//3 8//3 7//3
f 1//3 4//3 8//3
f 1//4 7//4 9//4
f 1//4 9//4 6//4
f 2//5 5//5 3//5
f 7//6 8//6 9//6
f 6//7 9//7 8//7
f 6//7 8//7 4//7
f 6//7 4//7 3//7
f 6//7 3//7 5//7
