# Blender v2.93.6 OBJ File: ''
# www.blender.org
mtllib worm.mtl
o obj1.008
v 10.000000 -10.000006 35.000000
v -10.000000 -10.000006 35.000000
v -15.000000 -10.000004 24.999998
v -26.000000 -9.999996 -25.000002
v 26.000000 -9.999996 -25.000002
v 15.000000 -10.000004 24.999998
v -5.000000 5.999998 15.000001
v 5.000000 5.999998 15.000001
v -8.000000 14.000004 -24.999998
v 8.000000 14.000004 -24.999998
vn 0.0000 -1.0000 -0.0000
vn 0.0000 0.7809 0.6247
vn 0.6854 0.6425 0.3427
vn -0.6854 0.6425 0.3427
vn 0.0000 0.9806 0.1961
vn 0.7873 0.5905 0.1772
vn 0.7833 0.5973 0.1723
vn -0.7873 0.5905 0.1772
vn -0.7833 0.5973 0.1723
vn 0.0000 0.0000 -1.0000
usemtl Default_OBJ.008
s off
f 1//1 2//1 3//1
f 1//1 3//1 4//1
f 1//1 4//1 5//1
f 1//1 5//1 6//1
f 1//2 7//2 2//2
f 1//2 8//2 7//2
f 1//3 6//3 8//3
f 2//4 7//4 3//4
f 8//5 9//5 7//5
f 8//5 10//5 9//5
f 8//6 5//6 10//6
f 8//7 6//7 5//7
f 7//8 9//8 4//8
f 7//9 4//9 3//9
f 4//10 10//10 5//10
f 4//10 9//10 10//10
